<svg width="14" height="16" viewBox="0 0 14 16" fill="none" xmlns="http://www.w3.org/2000/svg">
<path d="M1.56301 4.76329V13.9953C1.56301 14.5409 1.76309 15.0534 2.11262 15.421C2.46054 15.7898 2.94473 15.9991 3.45147 15.9999H10.541C11.0479 15.9991 11.5321 15.7898 11.8799 15.421C12.2294 15.0534 12.4295 14.5409 12.4295 13.9953V4.76329C13.1243 4.57887 13.5745 3.90762 13.4816 3.19465C13.3885 2.48183 12.7812 1.94861 12.0622 1.94846H10.1438V1.48008C10.146 1.0862 9.99023 0.707978 9.7114 0.429729C9.43256 0.151627 9.05376 -0.00323193 8.65988 -1.18018e-05H5.33261C4.93873 -0.00323193 4.55992 0.151627 4.28109 0.429729C4.00225 0.707978 3.84652 1.0862 3.84871 1.48008V1.94846H1.93025C1.21128 1.94861 0.603992 2.48183 0.510901 3.19465C0.417957 3.90762 0.868189 4.57887 1.56301 4.76329V4.76329ZM10.541 15.2505H3.45147C2.81081 15.2505 2.31242 14.7002 2.31242 13.9953V4.79623H11.6801V13.9953C11.6801 14.7002 11.1817 15.2505 10.541 15.2505ZM4.59812 1.48008C4.59564 1.28497 4.67233 1.09717 4.8108 0.959441C4.94912 0.821707 5.13735 0.746034 5.33261 0.7494H8.65988C8.85514 0.746034 9.04337 0.821707 9.18169 0.959441C9.32015 1.09703 9.39685 1.28497 9.39436 1.48008V1.94846H4.59812V1.48008ZM1.93025 2.69787H12.0622C12.4348 2.69787 12.7367 2.99983 12.7367 3.37234C12.7367 3.74485 12.4348 4.04681 12.0622 4.04681H1.93025C1.55774 4.04681 1.25578 3.74485 1.25578 3.37234C1.25578 2.99983 1.55774 2.69787 1.93025 2.69787V2.69787Z" fill="white"/>
</svg>
